<?xml version="1.0" encoding="UTF-8" standalone="no"?>
<!-- Created with Inkscape (http://www.inkscape.org/) -->

<svg
   width="695.60004pt"
   height="297.9332pt"
   viewBox="0 0 245.39224 105.10421"
   version="1.1"
   id="svg1"
   inkscape:version="1.3.2 (091e20e, 2023-11-25, custom)"
   xmlns:inkscape="http://www.inkscape.org/namespaces/inkscape"
   xmlns:sodipodi="http://sodipodi.sourceforge.net/DTD/sodipodi-0.dtd"
   xmlns="http://www.w3.org/2000/svg"
   xmlns:svg="http://www.w3.org/2000/svg">
  <sodipodi:namedview
     id="namedview1"
     pagecolor="#ffffff"
     bordercolor="#000000"
     borderopacity="0.25"
     inkscape:showpageshadow="2"
     inkscape:pageopacity="0.0"
     inkscape:pagecheckerboard="0"
     inkscape:deskcolor="#4c4c4c"
     inkscape:document-units="px"
     inkscape:zoom="0.93893445"
     inkscape:cx="473.9415"
     inkscape:cy="379.1532"
     inkscape:window-width="1366"
     inkscape:window-height="705"
     inkscape:window-x="-8"
     inkscape:window-y="-8"
     inkscape:window-maximized="1"
     inkscape:current-layer="layer1" />
  <defs
     id="defs1">
    <inkscape:path-effect
       effect="skeletal"
       id="path-effect18"
       is_visible="true"
       lpeversion="1"
       pattern="m 121.42894,55.52533 c 2.18097,-0.817909 -2.99391,-2.755526 -1.64545,-1.420738 1.47631,0.633818 -1.04456,1.277215 -2.40307,1.873436 -1.09497,0.06157 -1.38672,-0.25196 -2.79548,1.219539 0.71009,0.409108 -0.83225,1.105007 -1.34677,1.808589 -0.0147,1.416742 -2.31748,-0.825388 -2.40215,-1.834251 0.10772,-0.795474 1.421,-3.764595 2.05855,-2.890342 1.57026,0.726632 -4.3288,-0.01921 -3.31215,-0.72699 0.87702,-1.066386 -3.69032,2.041802 -4.62671,0.560981 0.94873,0.367003 1.8319,-2.91626 2.02593,-3.068849 -0.28357,-1.347338 -2.38678,-2.948837 -1.98121,-2.072177 0.037,-0.476772 -1.03965,1.913133 -2.29371,0.416228 -0.0507,0.03555 -1.42335,-2.927425 0.50689,-2.505461 -2.38452,0.99109 1.86468,-3.577071 2.16591,-3.419974 2.32475,-0.478821 -1.24812,-1.222561 -1.80859,-0.432465 -0.66096,-0.138606 -2.22912,-1.390876 -0.0524,-2.883375 0.43626,0.248476 1.27046,-5.76004 3.53,-4.44359 -1.67828,-0.881219 2.73806,0.657482 3.06808,0.66701 -0.73411,0.257543 3.72531,-1.8887 1.69795,-0.372639 -0.0322,-1.516522 3.34704,-0.756186 2.84122,-1.629773 2.01327,-1.269378 -1.69329,-2.986997 -0.97828,-1.6036 -0.25964,-1.416845 3.13159,3.443383 4.92871,2.056195 0.56492,0.446654 -2.27066,1.010144 -2.09733,1.592638 2.01901,0.447422 3.29182,0.151412 3.51955,1.177588 -1.65553,-0.503151 4.11675,0.547868 5.53047,0.287047 1.19398,1.238286 -1.59454,1.886805 -2.89762,2.965074 1.6099,0.826155 0.25458,2.61569 -1.88209,1.976955 -0.19823,-0.650056 5.23712,1.028123 5.94961,1.436719 0.4651,0.895458 1.16325,0.782207 2.52063,1.636023 1.38964,-0.662656 -6.75206,0.932799 -5.21592,1.540904 1.57917,0.654819 -4.21222,1.106953 -2.92061,1.002256 -1.54362,-1.086619 3.3017,2.880404 2.11029,4.352978 -0.41388,0.469243 -0.63618,3.416543 -1.79425,2.734064"
       copytype="single_stretched"
       prop_scale="1"
       scale_y_rel="false"
       spacing="0"
       normal_offset="0"
       tang_offset="0"
       prop_units="false"
       vertical_pattern="false"
       hide_knot="false"
       fuse_tolerance="0" />
    <inkscape:path-effect
       effect="skeletal"
       id="path-effect17"
       is_visible="true"
       lpeversion="1"
       pattern="m 121.42894,55.52533 c 2.18097,-0.817909 -2.99391,-2.755526 -1.64545,-1.420738 1.47631,0.633818 -1.04456,1.277215 -2.40307,1.873436 -1.09497,0.06157 -1.38672,-0.25196 -2.79548,1.219539 0.71009,0.409108 -0.83225,1.105007 -1.34677,1.808589 -0.0147,1.416742 -2.31748,-0.825388 -2.40215,-1.834251 0.10772,-0.795474 1.421,-3.764595 2.05855,-2.890342 1.57026,0.726632 -4.3288,-0.01921 -3.31215,-0.72699 0.87702,-1.066386 -3.69032,2.041802 -4.62671,0.560981 0.94873,0.367003 1.8319,-2.91626 2.02593,-3.068849 -0.28357,-1.347338 -2.38678,-2.948837 -1.98121,-2.072177 0.037,-0.476772 -1.03965,1.913133 -2.29371,0.416228 -0.0507,0.03555 -1.42335,-2.927425 0.50689,-2.505461 -2.38452,0.99109 1.86468,-3.577071 2.16591,-3.419974 2.32475,-0.478821 -1.24812,-1.222561 -1.80859,-0.432465 -0.66096,-0.138606 -2.22912,-1.390876 -0.0524,-2.883375 0.43626,0.248476 1.27046,-5.76004 3.53,-4.44359 -1.67828,-0.881219 2.73806,0.657482 3.06808,0.66701 -0.73411,0.257543 3.72531,-1.8887 1.69795,-0.372639 -0.0322,-1.516522 3.34704,-0.756186 2.84122,-1.629773 2.01327,-1.269378 -1.69329,-2.986997 -0.97828,-1.6036 -0.25964,-1.416845 3.13159,3.443383 4.92871,2.056195 0.56492,0.446654 -2.27066,1.010144 -2.09733,1.592638 2.01901,0.447422 3.29182,0.151412 3.51955,1.177588 -1.65553,-0.503151 4.11675,0.547868 5.53047,0.287047 1.19398,1.238286 -1.59454,1.886805 -2.89762,2.965074 1.6099,0.826155 0.25458,2.61569 -1.88209,1.976955 -0.19823,-0.650056 5.23712,1.028123 5.94961,1.436719 0.4651,0.895458 1.16325,0.782207 2.52063,1.636023 1.38964,-0.662656 -6.75206,0.932799 -5.21592,1.540904 1.57917,0.654819 -4.21222,1.106953 -2.92061,1.002256 -1.54362,-1.086619 3.3017,2.880404 2.11029,4.352978 -0.41388,0.469243 -0.63618,3.416543 -1.79425,2.734064"
       copytype="single_stretched"
       prop_scale="1"
       scale_y_rel="false"
       spacing="0"
       normal_offset="0"
       tang_offset="0"
       prop_units="false"
       vertical_pattern="false"
       hide_knot="false"
       fuse_tolerance="0" />
    <inkscape:path-effect
       effect="skeletal"
       id="path-effect16"
       is_visible="true"
       lpeversion="1"
       pattern="m 121.42894,55.52533 c 2.18097,-0.817909 -2.99391,-2.755526 -1.64545,-1.420738 1.47631,0.633818 -1.04456,1.277215 -2.40307,1.873436 -1.09497,0.06157 -1.38672,-0.25196 -2.79548,1.219539 0.71009,0.409108 -0.83225,1.105007 -1.34677,1.808589 -0.0147,1.416742 -2.31748,-0.825388 -2.40215,-1.834251 0.10772,-0.795474 1.421,-3.764595 2.05855,-2.890342 1.57026,0.726632 -4.3288,-0.01921 -3.31215,-0.72699 0.87702,-1.066386 -3.69032,2.041802 -4.62671,0.560981 0.94873,0.367003 1.8319,-2.91626 2.02593,-3.068849 -0.28357,-1.347338 -2.38678,-2.948837 -1.98121,-2.072177 0.037,-0.476772 -1.03965,1.913133 -2.29371,0.416228 -0.0507,0.03555 -1.42335,-2.927425 0.50689,-2.505461 -2.38452,0.99109 1.86468,-3.577071 2.16591,-3.419974 2.32475,-0.478821 -1.24812,-1.222561 -1.80859,-0.432465 -0.66096,-0.138606 -2.22912,-1.390876 -0.0524,-2.883375 0.43626,0.248476 1.27046,-5.76004 3.53,-4.44359 -1.67828,-0.881219 2.73806,0.657482 3.06808,0.66701 -0.73411,0.257543 3.72531,-1.8887 1.69795,-0.372639 -0.0322,-1.516522 3.34704,-0.756186 2.84122,-1.629773 2.01327,-1.269378 -1.69329,-2.986997 -0.97828,-1.6036 -0.25964,-1.416845 3.13159,3.443383 4.92871,2.056195 0.56492,0.446654 -2.27066,1.010144 -2.09733,1.592638 2.01901,0.447422 3.29182,0.151412 3.51955,1.177588 -1.65553,-0.503151 4.11675,0.547868 5.53047,0.287047 1.19398,1.238286 -1.59454,1.886805 -2.89762,2.965074 1.6099,0.826155 0.25458,2.61569 -1.88209,1.976955 -0.19823,-0.650056 5.23712,1.028123 5.94961,1.436719 0.4651,0.895458 1.16325,0.782207 2.52063,1.636023 1.38964,-0.662656 -6.75206,0.932799 -5.21592,1.540904 1.57917,0.654819 -4.21222,1.106953 -2.92061,1.002256 -1.54362,-1.086619 3.3017,2.880404 2.11029,4.352978 -0.41388,0.469243 -0.63618,3.416543 -1.79425,2.734064"
       copytype="single_stretched"
       prop_scale="1"
       scale_y_rel="false"
       spacing="0"
       normal_offset="0"
       tang_offset="0"
       prop_units="false"
       vertical_pattern="false"
       hide_knot="false"
       fuse_tolerance="0" />
    <inkscape:path-effect
       effect="skeletal"
       id="path-effect15"
       is_visible="true"
       lpeversion="1"
       pattern="m 121.42894,55.52533 c 2.18097,-0.817909 -2.99391,-2.755526 -1.64545,-1.420738 1.47631,0.633818 -1.04456,1.277215 -2.40307,1.873436 -1.09497,0.06157 -1.38672,-0.25196 -2.79548,1.219539 0.71009,0.409108 -0.83225,1.105007 -1.34677,1.808589 -0.0147,1.416742 -2.31748,-0.825388 -2.40215,-1.834251 0.10772,-0.795474 1.421,-3.764595 2.05855,-2.890342 1.57026,0.726632 -4.3288,-0.01921 -3.31215,-0.72699 0.87702,-1.066386 -3.69032,2.041802 -4.62671,0.560981 0.94873,0.367003 1.8319,-2.91626 2.02593,-3.068849 -0.28357,-1.347338 -2.38678,-2.948837 -1.98121,-2.072177 0.037,-0.476772 -1.03965,1.913133 -2.29371,0.416228 -0.0507,0.03555 -1.42335,-2.927425 0.50689,-2.505461 -2.38452,0.99109 1.86468,-3.577071 2.16591,-3.419974 2.32475,-0.478821 -1.24812,-1.222561 -1.80859,-0.432465 -0.66096,-0.138606 -2.22912,-1.390876 -0.0524,-2.883375 0.43626,0.248476 1.27046,-5.76004 3.53,-4.44359 -1.67828,-0.881219 2.73806,0.657482 3.06808,0.66701 -0.73411,0.257543 3.72531,-1.8887 1.69795,-0.372639 -0.0322,-1.516522 3.34704,-0.756186 2.84122,-1.629773 2.01327,-1.269378 -1.69329,-2.986997 -0.97828,-1.6036 -0.25964,-1.416845 3.13159,3.443383 4.92871,2.056195 0.56492,0.446654 -2.27066,1.010144 -2.09733,1.592638 2.01901,0.447422 3.29182,0.151412 3.51955,1.177588 -1.65553,-0.503151 4.11675,0.547868 5.53047,0.287047 1.19398,1.238286 -1.59454,1.886805 -2.89762,2.965074 1.6099,0.826155 0.25458,2.61569 -1.88209,1.976955 -0.19823,-0.650056 5.23712,1.028123 5.94961,1.436719 0.4651,0.895458 1.16325,0.782207 2.52063,1.636023 1.38964,-0.662656 -6.75206,0.932799 -5.21592,1.540904 1.57917,0.654819 -4.21222,1.106953 -2.92061,1.002256 -1.54362,-1.086619 3.3017,2.880404 2.11029,4.352978 -0.41388,0.469243 -0.63618,3.416543 -1.79425,2.734064"
       copytype="single_stretched"
       prop_scale="1"
       scale_y_rel="false"
       spacing="0"
       normal_offset="0"
       tang_offset="0"
       prop_units="false"
       vertical_pattern="false"
       hide_knot="false"
       fuse_tolerance="0" />
    <inkscape:path-effect
       effect="skeletal"
       id="path-effect14"
       is_visible="true"
       lpeversion="1"
       pattern="m 121.42894,55.52533 c 2.18097,-0.817909 -2.99391,-2.755526 -1.64545,-1.420738 1.47631,0.633818 -1.04456,1.277215 -2.40307,1.873436 -1.09497,0.06157 -1.38672,-0.25196 -2.79548,1.219539 0.71009,0.409108 -0.83225,1.105007 -1.34677,1.808589 -0.0147,1.416742 -2.31748,-0.825388 -2.40215,-1.834251 0.10772,-0.795474 1.421,-3.764595 2.05855,-2.890342 1.57026,0.726632 -4.3288,-0.01921 -3.31215,-0.72699 0.87702,-1.066386 -3.69032,2.041802 -4.62671,0.560981 0.94873,0.367003 1.8319,-2.91626 2.02593,-3.068849 -0.28357,-1.347338 -2.38678,-2.948837 -1.98121,-2.072177 0.037,-0.476772 -1.03965,1.913133 -2.29371,0.416228 -0.0507,0.03555 -1.42335,-2.927425 0.50689,-2.505461 -2.38452,0.99109 1.86468,-3.577071 2.16591,-3.419974 2.32475,-0.478821 -1.24812,-1.222561 -1.80859,-0.432465 -0.66096,-0.138606 -2.22912,-1.390876 -0.0524,-2.883375 0.43626,0.248476 1.27046,-5.76004 3.53,-4.44359 -1.67828,-0.881219 2.73806,0.657482 3.06808,0.66701 -0.73411,0.257543 3.72531,-1.8887 1.69795,-0.372639 -0.0322,-1.516522 3.34704,-0.756186 2.84122,-1.629773 2.01327,-1.269378 -1.69329,-2.986997 -0.97828,-1.6036 -0.25964,-1.416845 3.13159,3.443383 4.92871,2.056195 0.56492,0.446654 -2.27066,1.010144 -2.09733,1.592638 2.01901,0.447422 3.29182,0.151412 3.51955,1.177588 -1.65553,-0.503151 4.11675,0.547868 5.53047,0.287047 1.19398,1.238286 -1.59454,1.886805 -2.89762,2.965074 1.6099,0.826155 0.25458,2.61569 -1.88209,1.976955 -0.19823,-0.650056 5.23712,1.028123 5.94961,1.436719 0.4651,0.895458 1.16325,0.782207 2.52063,1.636023 1.38964,-0.662656 -6.75206,0.932799 -5.21592,1.540904 1.57917,0.654819 -4.21222,1.106953 -2.92061,1.002256 -1.54362,-1.086619 3.3017,2.880404 2.11029,4.352978 -0.41388,0.469243 -0.63618,3.416543 -1.79425,2.734064"
       copytype="single_stretched"
       prop_scale="1"
       scale_y_rel="false"
       spacing="0"
       normal_offset="0"
       tang_offset="0"
       prop_units="false"
       vertical_pattern="false"
       hide_knot="false"
       fuse_tolerance="0" />
    <inkscape:path-effect
       effect="skeletal"
       id="path-effect13"
       is_visible="true"
       lpeversion="1"
       pattern="m 121.42894,55.52533 c 2.18097,-0.817909 -2.99391,-2.755526 -1.64545,-1.420738 1.47631,0.633818 -1.04456,1.277215 -2.40307,1.873436 -1.09497,0.06157 -1.38672,-0.25196 -2.79548,1.219539 0.71009,0.409108 -0.83225,1.105007 -1.34677,1.808589 -0.0147,1.416742 -2.31748,-0.825388 -2.40215,-1.834251 0.10772,-0.795474 1.421,-3.764595 2.05855,-2.890342 1.57026,0.726632 -4.3288,-0.01921 -3.31215,-0.72699 0.87702,-1.066386 -3.69032,2.041802 -4.62671,0.560981 0.94873,0.367003 1.8319,-2.91626 2.02593,-3.068849 -0.28357,-1.347338 -2.38678,-2.948837 -1.98121,-2.072177 0.037,-0.476772 -1.03965,1.913133 -2.29371,0.416228 -0.0507,0.03555 -1.42335,-2.927425 0.50689,-2.505461 -2.38452,0.99109 1.86468,-3.577071 2.16591,-3.419974 2.32475,-0.478821 -1.24812,-1.222561 -1.80859,-0.432465 -0.66096,-0.138606 -2.22912,-1.390876 -0.0524,-2.883375 0.43626,0.248476 1.27046,-5.76004 3.53,-4.44359 -1.67828,-0.881219 2.73806,0.657482 3.06808,0.66701 -0.73411,0.257543 3.72531,-1.8887 1.69795,-0.372639 -0.0322,-1.516522 3.34704,-0.756186 2.84122,-1.629773 2.01327,-1.269378 -1.69329,-2.986997 -0.97828,-1.6036 -0.25964,-1.416845 3.13159,3.443383 4.92871,2.056195 0.56492,0.446654 -2.27066,1.010144 -2.09733,1.592638 2.01901,0.447422 3.29182,0.151412 3.51955,1.177588 -1.65553,-0.503151 4.11675,0.547868 5.53047,0.287047 1.19398,1.238286 -1.59454,1.886805 -2.89762,2.965074 1.6099,0.826155 0.25458,2.61569 -1.88209,1.976955 -0.19823,-0.650056 5.23712,1.028123 5.94961,1.436719 0.4651,0.895458 1.16325,0.782207 2.52063,1.636023 1.38964,-0.662656 -6.75206,0.932799 -5.21592,1.540904 1.57917,0.654819 -4.21222,1.106953 -2.92061,1.002256 -1.54362,-1.086619 3.3017,2.880404 2.11029,4.352978 -0.41388,0.469243 -0.63618,3.416543 -1.79425,2.734064"
       copytype="single_stretched"
       prop_scale="1"
       scale_y_rel="false"
       spacing="0"
       normal_offset="0"
       tang_offset="0"
       prop_units="false"
       vertical_pattern="false"
       hide_knot="false"
       fuse_tolerance="0" />
    <inkscape:path-effect
       effect="skeletal"
       id="path-effect12"
       is_visible="true"
       lpeversion="1"
       pattern="m 121.42894,55.52533 c 2.18097,-0.817909 -2.99391,-2.755526 -1.64545,-1.420738 1.47631,0.633818 -1.04456,1.277215 -2.40307,1.873436 -1.09497,0.06157 -1.38672,-0.25196 -2.79548,1.219539 0.71009,0.409108 -0.83225,1.105007 -1.34677,1.808589 -0.0147,1.416742 -2.31748,-0.825388 -2.40215,-1.834251 0.10772,-0.795474 1.421,-3.764595 2.05855,-2.890342 1.57026,0.726632 -4.3288,-0.01921 -3.31215,-0.72699 0.87702,-1.066386 -3.69032,2.041802 -4.62671,0.560981 0.94873,0.367003 1.8319,-2.91626 2.02593,-3.068849 -0.28357,-1.347338 -2.38678,-2.948837 -1.98121,-2.072177 0.037,-0.476772 -1.03965,1.913133 -2.29371,0.416228 -0.0507,0.03555 -1.42335,-2.927425 0.50689,-2.505461 -2.38452,0.99109 1.86468,-3.577071 2.16591,-3.419974 2.32475,-0.478821 -1.24812,-1.222561 -1.80859,-0.432465 -0.66096,-0.138606 -2.22912,-1.390876 -0.0524,-2.883375 0.43626,0.248476 1.27046,-5.76004 3.53,-4.44359 -1.67828,-0.881219 2.73806,0.657482 3.06808,0.66701 -0.73411,0.257543 3.72531,-1.8887 1.69795,-0.372639 -0.0322,-1.516522 3.34704,-0.756186 2.84122,-1.629773 2.01327,-1.269378 -1.69329,-2.986997 -0.97828,-1.6036 -0.25964,-1.416845 3.13159,3.443383 4.92871,2.056195 0.56492,0.446654 -2.27066,1.010144 -2.09733,1.592638 2.01901,0.447422 3.29182,0.151412 3.51955,1.177588 -1.65553,-0.503151 4.11675,0.547868 5.53047,0.287047 1.19398,1.238286 -1.59454,1.886805 -2.89762,2.965074 1.6099,0.826155 0.25458,2.61569 -1.88209,1.976955 -0.19823,-0.650056 5.23712,1.028123 5.94961,1.436719 0.4651,0.895458 1.16325,0.782207 2.52063,1.636023 1.38964,-0.662656 -6.75206,0.932799 -5.21592,1.540904 1.57917,0.654819 -4.21222,1.106953 -2.92061,1.002256 -1.54362,-1.086619 3.3017,2.880404 2.11029,4.352978 -0.41388,0.469243 -0.63618,3.416543 -1.79425,2.734064"
       copytype="single_stretched"
       prop_scale="1"
       scale_y_rel="false"
       spacing="0"
       normal_offset="0"
       tang_offset="0"
       prop_units="false"
       vertical_pattern="false"
       hide_knot="false"
       fuse_tolerance="0" />
    <inkscape:path-effect
       effect="skeletal"
       id="path-effect11"
       is_visible="true"
       lpeversion="1"
       pattern="m 121.42894,55.52533 c 2.18097,-0.817909 -2.99391,-2.755526 -1.64545,-1.420738 1.47631,0.633818 -1.04456,1.277215 -2.40307,1.873436 -1.09497,0.06157 -1.38672,-0.25196 -2.79548,1.219539 0.71009,0.409108 -0.83225,1.105007 -1.34677,1.808589 -0.0147,1.416742 -2.31748,-0.825388 -2.40215,-1.834251 0.10772,-0.795474 1.421,-3.764595 2.05855,-2.890342 1.57026,0.726632 -4.3288,-0.01921 -3.31215,-0.72699 0.87702,-1.066386 -3.69032,2.041802 -4.62671,0.560981 0.94873,0.367003 1.8319,-2.91626 2.02593,-3.068849 -0.28357,-1.347338 -2.38678,-2.948837 -1.98121,-2.072177 0.037,-0.476772 -1.03965,1.913133 -2.29371,0.416228 -0.0507,0.03555 -1.42335,-2.927425 0.50689,-2.505461 -2.38452,0.99109 1.86468,-3.577071 2.16591,-3.419974 2.32475,-0.478821 -1.24812,-1.222561 -1.80859,-0.432465 -0.66096,-0.138606 -2.22912,-1.390876 -0.0524,-2.883375 0.43626,0.248476 1.27046,-5.76004 3.53,-4.44359 -1.67828,-0.881219 2.73806,0.657482 3.06808,0.66701 -0.73411,0.257543 3.72531,-1.8887 1.69795,-0.372639 -0.0322,-1.516522 3.34704,-0.756186 2.84122,-1.629773 2.01327,-1.269378 -1.69329,-2.986997 -0.97828,-1.6036 -0.25964,-1.416845 3.13159,3.443383 4.92871,2.056195 0.56492,0.446654 -2.27066,1.010144 -2.09733,1.592638 2.01901,0.447422 3.29182,0.151412 3.51955,1.177588 -1.65553,-0.503151 4.11675,0.547868 5.53047,0.287047 1.19398,1.238286 -1.59454,1.886805 -2.89762,2.965074 1.6099,0.826155 0.25458,2.61569 -1.88209,1.976955 -0.19823,-0.650056 5.23712,1.028123 5.94961,1.436719 0.4651,0.895458 1.16325,0.782207 2.52063,1.636023 1.38964,-0.662656 -6.75206,0.932799 -5.21592,1.540904 1.57917,0.654819 -4.21222,1.106953 -2.92061,1.002256 -1.54362,-1.086619 3.3017,2.880404 2.11029,4.352978 -0.41388,0.469243 -0.63618,3.416543 -1.79425,2.734064"
       copytype="single_stretched"
       prop_scale="1"
       scale_y_rel="false"
       spacing="0"
       normal_offset="0"
       tang_offset="0"
       prop_units="false"
       vertical_pattern="false"
       hide_knot="false"
       fuse_tolerance="0" />
    <inkscape:path-effect
       effect="skeletal"
       id="path-effect10"
       is_visible="true"
       lpeversion="1"
       pattern="m 121.42894,55.52533 c 2.18097,-0.817909 -2.99391,-2.755526 -1.64545,-1.420738 1.47631,0.633818 -1.04456,1.277215 -2.40307,1.873436 -1.09497,0.06157 -1.38672,-0.25196 -2.79548,1.219539 0.71009,0.409108 -0.83225,1.105007 -1.34677,1.808589 -0.0147,1.416742 -2.31748,-0.825388 -2.40215,-1.834251 0.10772,-0.795474 1.421,-3.764595 2.05855,-2.890342 1.57026,0.726632 -4.3288,-0.01921 -3.31215,-0.72699 0.87702,-1.066386 -3.69032,2.041802 -4.62671,0.560981 0.94873,0.367003 1.8319,-2.91626 2.02593,-3.068849 -0.28357,-1.347338 -2.38678,-2.948837 -1.98121,-2.072177 0.037,-0.476772 -1.03965,1.913133 -2.29371,0.416228 -0.0507,0.03555 -1.42335,-2.927425 0.50689,-2.505461 -2.38452,0.99109 1.86468,-3.577071 2.16591,-3.419974 2.32475,-0.478821 -1.24812,-1.222561 -1.80859,-0.432465 -0.66096,-0.138606 -2.22912,-1.390876 -0.0524,-2.883375 0.43626,0.248476 1.27046,-5.76004 3.53,-4.44359 -1.67828,-0.881219 2.73806,0.657482 3.06808,0.66701 -0.73411,0.257543 3.72531,-1.8887 1.69795,-0.372639 -0.0322,-1.516522 3.34704,-0.756186 2.84122,-1.629773 2.01327,-1.269378 -1.69329,-2.986997 -0.97828,-1.6036 -0.25964,-1.416845 3.13159,3.443383 4.92871,2.056195 0.56492,0.446654 -2.27066,1.010144 -2.09733,1.592638 2.01901,0.447422 3.29182,0.151412 3.51955,1.177588 -1.65553,-0.503151 4.11675,0.547868 5.53047,0.287047 1.19398,1.238286 -1.59454,1.886805 -2.89762,2.965074 1.6099,0.826155 0.25458,2.61569 -1.88209,1.976955 -0.19823,-0.650056 5.23712,1.028123 5.94961,1.436719 0.4651,0.895458 1.16325,0.782207 2.52063,1.636023 1.38964,-0.662656 -6.75206,0.932799 -5.21592,1.540904 1.57917,0.654819 -4.21222,1.106953 -2.92061,1.002256 -1.54362,-1.086619 3.3017,2.880404 2.11029,4.352978 -0.41388,0.469243 -0.63618,3.416543 -1.79425,2.734064"
       copytype="single_stretched"
       prop_scale="1"
       scale_y_rel="false"
       spacing="0"
       normal_offset="0"
       tang_offset="0"
       prop_units="false"
       vertical_pattern="false"
       hide_knot="false"
       fuse_tolerance="0" />
  </defs>
  <g
     inkscape:label="Layer 1"
     inkscape:groupmode="layer"
     id="layer1"
     transform="translate(-4.4745255,-46.612076)">
    <path
       style="fill:#ffffff;stroke:none;stroke-width:1.05833;stroke-linecap:round"
       d="m 24.613091,124.48922 c 0.232003,3.39564 1.03658,1.31972 1.589439,-1.58971 0.541672,-2.85056 0.69293,-5.85723 0.0063,-3.72259 -0.369847,2.47733 -0.67072,1.48389 -0.945303,-0.47097 -0.283698,-2.01974 -0.596919,-5.20484 -0.928943,-7.43922 -0.06034,-1.88461 -0.0222,-3.10737 -0.199544,-4.44958 -0.165525,-1.20786 -0.516006,-2.59226 -1.311059,-4.75395 -0.295948,2.37531 -1.242247,-2.705733 -2.045281,-4.374732 -1.23351,0.02979 0.164548,-7.754409 1.297522,-8.165588 0.824481,0.308166 4.093834,4.527063 3.348793,6.734342 -0.203825,2.698795 -0.408821,-1.011223 -0.494014,-4.867254 -0.08592,-3.888998 -0.04681,-8.088571 0.439106,-6.378339 0.647631,1.45798 -0.10326,-1.650955 -0.859913,-5.53163 -0.759939,-3.897535 -1.518585,-8.58614 -0.886429,-10.268844 -0.138729,3.300299 3.367033,6.083739 3.569502,6.736237 1.242744,-1.049119 2.359757,-8.413663 1.570115,-6.93968 0.48449,0.09368 -2.168159,-3.452169 -0.915408,-7.855384 -0.04527,-0.172648 2.628939,-5.038411 2.60192,1.595972 -0.753111,-4.135042 0.281297,-2.42747 1.410254,0.175616 1.157133,2.668052 2.53141,6.483826 2.490558,6.991178 0.529768,4.005195 0.751524,2.79287 0.733738,0.555358 -0.01818,-2.286894 -0.268584,-5.823523 -0.715069,-6.737333 -0.0011,-2.399645 0.956914,-7.493985 2.86688,-0.355611 -0.156975,1.489781 6.003223,3.860192 5.273341,11.637942 0.225029,-2.912326 0.233652,-0.518504 0.203479,2.65784 -0.03001,3.159114 -0.105589,7.361907 -0.07147,7.883021 -0.224027,-1.266123 0.490644,1.92485 0.986176,4.555135 0.519926,2.759769 0.762747,4.635398 -0.19911,1.280061 0.754343,-0.107023 1.136989,2.780906 1.401754,5.496136 0.264492,2.712419 0.408362,5.243177 0.802288,4.331717 0.794816,3.48307 1.470784,2.04488 1.793884,-0.093 0.316733,-2.095775 0.250395,-4.728779 -0.370284,-3.43321 0.81667,-0.593905 -0.352551,3.58451 -1.153413,8.39388 0,0 0,0 0,0 -0.510351,3.15418 -0.88269,6.64784 -0.331045,9.20101 -0.223474,1.0201 -0.470659,-1.0339 -0.774091,-3.22743 -0.30397,-2.19741 -0.668643,-4.5413 -0.950149,-4.22697 -0.21823,7.14338 -0.06218,11.73908 -1.110016,12.53009 0.09239,-0.84491 0.35889,-1.392 -0.283328,5.78713 -0.453369,5.06805 -1.418706,11.51227 -1.680806,14.0769 -0.963469,2.10619 -1.16218,0.47852 -1.255229,-2.05498 -0.103003,-2.80451 -0.112358,-6.052 -0.502582,-8.60273 -1.58415,7.01632 -2.332865,-0.77302 -1.59742,-6.71084 0.340884,-0.33587 -0.06054,4.23535 -0.92034,9.14444 -0.916424,5.23241 -2.155615,9.77857 -2.695148,11.25885 -1.175391,1.41806 -1.478882,3.8367 -3.538724,8.08456 -0.22124,1.67603 1.012996,-2.53769 1.73539,-8.91637 0.662508,-5.84991 0.560373,-11.11868 0.01421,-8.74225 -0.636365,2.70101 -0.45642,-1.04069 -0.360224,-4.61695 0.06682,-2.48423 0.161172,-8.66456 0.09727,-5.29392 0.690253,-2.71649 -0.212362,0.31814 -1.378497,3.03371 -1.218116,2.83662 -2.856046,5.6685 -3.41935,3.67018 -0.34924,-1.38459 -3.199988,-2.29036 -2.339738,-5.99223 z"
       id="path10"
       inkscape:path-effect="#path-effect10"
       inkscape:original-d="m 31.278808,59.176123 c 1.612689,31.118545 6.955986,64.107337 -1.127164,92.709257" />
    <path
       style="fill:#ffffff;stroke:none;stroke-width:1.05833;stroke-linecap:round"
       d="m 63.411575,84.283693 c 4.795138,-1.131017 0.472789,-1.183026 -2.084757,-1.274843 -2.914625,-0.104637 -6.630459,-0.341026 -4.066668,0.330676 2.340005,0.239653 2.004561,0.568065 -0.484646,0.96062 -2.506453,0.395275 -5.185061,0.481182 -7.606057,0.601768 -0.55445,-0.04023 -1.043514,-0.08896 -1.473538,-0.134231 -2.112146,-0.135754 -3.506407,-0.25853 -6.755486,0.800603 0.97912,0.256795 0.365773,0.499116 -0.615564,0.766864 -1.038527,0.283351 -2.284441,0.559529 -2.968217,0.924211 -0.01908,0.710781 -1.457707,0.472429 -2.838175,0.03391 -1.37742,-0.437547 -2.816284,-1.094679 -2.968328,-1.560361 0.07377,-0.422896 0.759247,-1.443707 1.766075,-2.260533 0.993184,-0.805757 2.272903,-1.366374 3.125717,-0.935582 1.578572,0.263264 0.38544,0.298609 -1.112015,0.307766 -1.637096,0.01001 -3.955241,0.06797 -5.55823,0.166039 0,0 -10e-7,0 -10e-7,0 -1.467201,0.06573 -2.517086,0.09438 -1.742994,-0.3163 0.580326,-0.459918 -0.09407,-0.281502 -1.629523,0.430899 -1.702032,0.789689 -3.140281,1.625046 -5.027342,2.73181 -1.435617,0.826309 -2.739496,1.568693 -3.562987,1.555228 1.424679,-0.599961 2.064072,-2.405836 2.551682,-3.717252 0.256363,-0.698798 0.451354,-1.252207 0.59292,-1.370436 -0.277236,-0.215154 -0.790609,-0.340804 -1.412629,-0.381983 -0.617069,-0.04187 -6.949389,0.750324 -4.320094,1.028493 -0.159965,-0.460887 -1.319932,3.002743 -5.004545,4.109185 -0.04381,0.05936 -1.2880088,0.152624 -1.9754739,-0.154176 C 7.6144671,86.646599 7.3563368,85.8328 9.7883833,84.207671 7.693068,86.37351 7.5136466,85.722099 9.1108843,82.963696 c 1.3832097,-2.38878 3.6750867,-5.080466 4.2751767,-5.306967 2.235155,-1.487654 3.079607,-2.271812 0.155059,-0.88354 -2.079784,0.987266 -4.6751303,2.747172 -5.2156334,3.70255 -0.8576893,0.55616 -2.5307174,1.429692 -3.3262507,1.46007 -0.7097904,0.0271 -1.0801288,-0.808757 1.4592658,-3.666075 0.6129235,-0.316302 0.6489429,-1.871775 1.3795778,-3.8091 0.7172965,-1.901957 2.1923775,-4.305824 5.5197025,-5.736482 0.549664,-0.232653 1.145165,-0.434851 1.786388,-0.596612 -3.279075,0.87916 -0.522463,-0.192076 2.756612,-1.071236 4.418852,-1.19357 6.832209,-1.267679 8.423703,-1.536398 -0.392258,0.108421 -0.447999,0.09625 0.485921,-0.196019 1.639182,-0.489799 3.917704,-1.042811 5.934277,-1.361137 2.168531,-0.342313 2.019797,-0.17978 -0.328589,0.482454 -0.107567,-0.750421 2.889101,-1.129073 5.562732,-1.235986 2.660689,-0.106395 5.039177,-0.0023 4.211778,-0.480977 3.226472,-0.474993 2.102997,-1.28034 0.07539,-1.798702 -1.93207,-0.493936 -4.595311,-0.606976 -3.343623,0.106823 -0.314932,-0.510113 1.048038,-0.209363 3.123083,0.424997 1.837455,0.561728 4.975109,1.650077 7.216844,2.20078 1.857718,0.371943 3.548671,0.564534 4.873852,0.252771 0.53871,0.191107 -0.111536,0.340583 -1.198598,0.470387 -1.090794,0.13025 -2.654887,0.244072 -3.758652,0.400544 0,0 0,0 0,0 -0.812973,0.08388 -1.353036,0.197007 -1.221293,0.365401 0.40697,0.06256 0.79929,0.121486 1.180998,0.177538 0,0 1e-6,0 1e-6,0 5.309736,0.577987 8.129455,0.633693 8.618425,1.47749 -1.650073,-0.193687 -0.441272,-0.133812 0.704228,-0.110277 1.509469,0.03101 3.62049,0.01652 5.544576,-0.54262 0,0 10e-7,0 10e-7,0 2.224013,-0.512586 3.969428,-1.532724 4.783798,-2.286485 0.200282,-0.03219 0.361066,-0.04369 0.489598,-0.03274 0.324268,0.0261 0.43788,0.189345 0.38221,0.474709 -0.222663,1.348871 -2.600523,3.176223 -4.837541,4.66974 -0.115243,0.07998 -0.22839,0.158336 -0.336472,0.233939 0.140807,-0.01073 0.272691,-0.01942 0.396745,-0.02578 1.687478,-0.03151 2.243297,0.613337 0.475032,1.640547 0,0 0,0 0,0 -1.113631,0.664444 -2.968771,1.207632 -5.382575,1.119299 -0.256674,-0.260755 2.391648,-0.156334 5.47813,-0.789294 2.818821,-0.531989 5.292837,-1.568849 7.408696,-2.87151 1.047148,-0.639085 1.95943,-1.322181 2.259435,-1.525183 1.454219,-0.293239 3.02471,-1.94063 5.812198,-4.896082 0.583957,-1.399882 -0.256006,0.163125 -1.29469,1.828236 -1.304891,2.091865 -2.943939,4.391704 -5.194605,6.558311 -2.9897,2.870548 -6.071451,4.448005 -4.091186,3.786521 2.342143,-0.767507 -0.177185,0.985746 -3.450899,2.123722 -3.54495,1.19645 -7.592209,1.548002 -5.433135,1.263229 -1.15264,-0.124141 -1.562853,-0.143061 0.378361,0.256443 1.45179,0.298779 3.836494,0.622671 5.751427,0.886255 0,0 0,0 0,0 1.928998,0.223247 3.509602,0.471013 2.094528,1.522481 -0.476126,0.336559 -0.784098,0.903475 -1.206693,1.543703 0,0 0,0 0,0 -0.76067,1.146004 -2.021703,2.68846 -5.07662,2.650258 z"
       id="path11"
       inkscape:path-effect="#path-effect11"
       inkscape:original-d="M 6.7629854,85.382689 C 36.366164,59.34204 63.515832,90.830439 81.155825,61.43045" />
    <path
       style="fill:#ffffff;stroke:none;stroke-width:1.05833;stroke-linecap:round"
       d="m 40.406155,93.801086 c -2.732551,0.419103 -0.878098,1.10132 1.296298,1.510272 2.163851,0.406969 4.552639,0.517982 2.857122,-0.124587 -3.695231,-0.582451 2.600798,-1.299055 5.962568,-1.996808 1.737886,-0.09089 2.69437,-0.01466 4.034745,-0.381825 0.735621,-0.20318 1.612282,-0.546092 2.794453,-1.13275 -1.755938,-0.309882 1.962817,-1.224552 3.149521,-2.014506 -0.05891,-1.308484 5.586898,0.302317 5.908346,1.341081 -0.174432,0.808561 -3.053892,4.095724 -4.73383,3.315881 -2.020411,-0.226902 0.774247,-0.394645 3.52661,-0.468519 2.824845,-0.07582 5.800879,-0.07677 4.622246,0.418041 -0.971405,0.639268 1.159685,-0.08661 3.873327,-0.956809 2.657958,-0.852339 5.846172,-1.856397 7.052503,-1.376063 -2.289559,0.104169 -3.816028,3.687203 -4.262125,3.916063 0.460056,0.6128 2.030588,1.081611 3.375077,1.293301 1.34574,0.211888 2.406737,0.16193 1.829053,-0.160089 0.0067,0.485038 2.069588,-2.36455 5.453155,-1.708075 0.05622,-0.03317 1.097565,0.445138 1.540503,1.032095 0.429935,0.569725 0.292502,1.317913 -2.150646,1.709378 2.660188,-1.147147 2.033431,-0.166139 0.149212,1.401625 -1.780263,1.481268 -4.402256,3.150138 -4.839748,3.150248 -2.723717,0.77182 -2.290877,0.98745 -0.321418,0.76845 1.787797,-0.1988 4.386208,-0.78442 5.033509,-1.36238 0.847995,-0.13366 2.373174,-0.15761 3.016545,0.19816 0.626571,0.34648 0.481502,1.14944 -2.204766,2.56954 -1.198739,0.0339 -2.189383,6.53048 -8.532869,6.25804 2.015292,0.046 0.800805,0.209 -2.117172,0.33939 -2.576776,0.11513 -5.819255,0.11411 -6.263765,0.16002 1.509033,-0.37323 -2.014321,0.6551 -3.523354,1.02834 -2.208222,0.54967 -3.501649,0.74246 -1.004684,-0.19532 0.110652,0.75737 -2.129025,1.13888 -4.211342,1.38831 -2.078919,0.24902 -4.001228,0.37079 -3.29918,0.77237 -2.631597,0.76636 -1.527595,1.4561 0.103593,1.79482 1.603616,0.333 3.640925,0.28467 2.626198,-0.34552 0.445018,0.76712 -2.336164,-0.21841 -5.624718,-1.02886 -2.601104,-0.63371 -5.545076,-1.15476 -7.615273,-0.5025 -1.498007,-0.41603 5.969816,-1.18145 5.490561,-1.74688 -5.331849,-0.2528 -8.66477,0.041 -9.26132,-0.96291 2.066861,0.21628 -0.433222,0.13623 -4.198454,-0.02 -3.651623,-0.15153 -8.310573,-0.37003 -10.103751,-0.24995 -3.05895,-1.25428 4.098217,-1.86183 7.463898,-2.94384 -4.40496,-0.87546 -0.391988,-2.56158 4.843107,-1.99544 0.257817,0.323 -3.11929,0.0914 -6.773661,-0.30449 -3.636928,-0.39402 -7.605277,-0.94628 -8.498847,-1.151 -1.179587,-0.89598 -2.98194,-0.80344 -6.44943,-1.65664 -1.736946,0.32249 2.500147,0.10292 6.823337,-0.27178 4.266398,-0.36978 8.524049,-0.9045 6.543958,-1.21734 -2.029216,-0.33553 0.687303,-0.59872 3.459278,-0.78022 2.781654,-0.18214 5.647606,-0.2903 4.00135,-0.22795 1.986948,0.53555 -0.154823,-0.17899 -2.357483,-1.207096 -2.219604,-1.036013 -4.538827,-2.401667 -3.022822,-3.13556 1.053436,-0.46768 1.61846,-3.40906 4.540585,-2.739698 z"
       id="path12"
       inkscape:path-effect="#path-effect12"
       inkscape:original-d="M 89.327764,98.345079 C 67.357563,104.3985 42.885553,103.41732 20.007165,103.41732" />
    <path
       style="fill:#ffffff;stroke:none;stroke-width:1.05833;stroke-linecap:round"
       d="m 114.7536,99.149233 c 1.986,4.634347 1.64593,1.767157 0.8552,-1.84167 -0.92209,-4.176021 -2.62275,-10.068247 -2.1262,-6.282149 1.52137,6.116947 -1.51683,-1.39806 -4.04124,-6.591027 -0.59536,-1.214975 -1.09126,-2.180058 -1.58159,-2.998422 -0.14219,-0.302071 -0.27446,-0.57439 -0.40039,-0.823566 0,0 0,0 0,0 -0.58906,-0.996465 -0.59385,-1.211071 -0.49828,-0.943677 0.0378,0.159415 0.5012,0.544153 1.37275,1.214009 0.74553,0.644565 2.12715,1.083865 4.26189,1.355861 2.09878,-0.04857 3.76725,-0.411196 4.93221,-1.21055 1.13694,-0.787445 1.88873,-1.334042 2.026,-1.593789 0,0 0,-10e-7 0,-10e-7 0.28581,-0.331461 0.73348,-0.356204 0.421,0.960627 -0.0163,0.210052 -0.0298,0.431939 -0.0406,0.668367 0.54238,-1.005889 0.59403,-0.41079 0.54525,0.484917 -0.0543,0.996554 -0.21367,2.709755 -0.27879,4.165731 -0.0167,0.439342 -0.019,0.83442 -0.001,1.152553 0.68053,0.198915 -0.12903,2.670471 -1.17797,5.228351 -1.04498,2.548258 -2.35995,5.206384 -2.88866,5.313355 -0.72179,-0.678633 -2.44461,-7.335542 -0.89443,-10.093034 1.24314,-3.680981 -0.065,1.588808 -1.23846,6.731328 -1.1993,5.255868 -2.55623,11.325683 -2.48202,8.709593 -0.0961,-1.29829 -0.2261,-0.26063 -0.41766,1.97621 -0.43835,5.20274 -1.14065,17.54814 -2.60171,20.49206 1.05455,-4.55144 -1.52056,-9.33111 -1.5229,-10.29598 -1.60329,1.20738 -4.65771,11.10451 -3.52848,9.31471 -0.44441,-0.25103 1.1335,5.33808 -1.23776,11.23904 -8e-4,0.2524 -3.913299,6.52326 -2.11866,-2.8343 -0.713331,11.66105 -2.225104,-9.49501 -1.812238,-11.07547 0.609558,-5.58624 0.118103,-4.36498 -0.552485,-0.9719 -0.647618,3.27686 -1.382785,8.30659 -1.191488,9.74426 -0.597987,3.13924 -2.976385,10.76133 -2.890465,-0.16261 0.558937,-2.09767 -4.825536,-7.068 -1.769896,-17.97199 -1.603855,5.98555 0.63186,-4.03563 2.107494,-10.37616 0.528013,-2.274711 0.976713,-4.199249 1.049455,-4.602519 -0.208398,2.017905 0.148436,-3.014491 0.573159,-6.773195 0.570824,-5.051664 0.875749,-5.966737 0.643973,-1.77883 -0.795696,-0.07187 -0.05135,-4.610025 0.873402,-8.760512 0.871868,-3.994264 2.227445,-7.938606 1.381731,-6.704727 0.03369,-0.137795 0.144546,-0.589251 0.178234,-0.727045 0.332856,-2.293798 1.20492,-4.139618 0.759943,-3.925037 -0.475717,0.229404 -1.710712,1.987269 -2.287714,3.357659 -0.955449,1.877903 -1.725581,3.922184 -2.116519,5.343772 -0.380454,1.383466 -0.36565,2.022708 0.234872,1.119096 -0.688813,0.415064 0.20104,-1.94422 2.448056,-6.252517 0.535249,-1.220798 1.769666,-3.416834 4.062576,-6.322379 0,-10e-7 0,-3e-6 0,-3e-6 0.65687,-0.940715 2.0194,-2.142917 4.13565,-3.538354 1.82416,-1.202793 4.31006,-1.84184 7.42528,-1.859095 0,0 2e-5,0 2e-5,0 3.01217,0.341179 5.2311,1.100712 6.63259,2.220158 1.67389,1.234676 2.77508,2.303274 3.3361,3.158102 1.65551,2.334187 2.59022,4.210647 3.05071,5.535977 0.89971,2.17226 1.62075,4.09574 2.31312,5.669698 0.32123,0.724061 0.65042,1.402148 0.9916,2.023544 0.22832,1.092056 -0.39163,-0.09962 -1.28859,-1.908667 0,0 0,-10e-7 0,-10e-7 -0.7808,-1.586446 -1.68816,-3.446204 -2.82703,-5.386162 0,0 0,-2e-6 0,-2e-6 -1.04895,-1.967073 -3.22116,-4.5005 -3.02708,-3.906479 1.24098,1.746261 1.97845,3.179783 2.39099,4.219007 0.95729,2.109907 1.69153,4.058131 2.22406,5.552911 1.83242,5.097067 2.74094,8.289229 2.3496,9.207369 -0.99644,-3.60521 0.12965,-0.05043 1.7676,5.169198 2.37403,7.532731 5.18147,16.164093 6.97781,20.380893 0.44289,2.86934 -0.66477,1.33927 -2.32069,-1.77652 -1.63439,-3.07529 -3.7292,-7.63067 -5.29376,-10.4659 1.55702,6.57383 -1.45934,3.36888 -4.40058,-6.418701 -0.16324,-0.544113 -0.32374,-1.104216 -0.48118,-1.680118 0.0525,-0.197625 0.30885,0.426983 0.70119,1.605003 0,0 0,10e-7 0,10e-7 0.90333,2.708322 2.66347,8.808195 4.28352,14.259885 1.64686,5.54189 3.26435,10.6994 3.64467,12.10222 0.0169,2.32242 1.40195,5.72706 3.34798,12.04716 1.61525,2.80893 -1.90373,-4.28848 -5.39948,-11.98175 -3.35578,-7.38523 -6.68777,-15.16988 -5.64053,-11.35952 0.77532,2.86326 -0.24071,0.77018 -1.71839,-2.85014 -1.51158,-3.70339 -3.15634,-8.152652 -3.96393,-10.358469 0,-10e-7 0,-10e-7 0,-10e-7 -0.33671,-0.918805 -0.5981,-1.643965 -0.041,-0.09584 -0.42907,-2.258634 -0.37945,-1.74148 -0.16054,0.16466 0.48508,4.249565 1.77297,14.624408 -0.51828,11.157158 -1.13293,-1.78893 -4.30203,-1.87423 -5.52073,-7.545667 z"
       id="path13"
       inkscape:path-effect="#path-effect13"
       inkscape:original-d="M 98.345079,137.51403 C 114.28547,27.536772 112.75542,77.331275 138.07762,132.72359" />
    <path
       style="fill:#ffffff;stroke:none;stroke-width:1.05833;stroke-linecap:round"
       d="m 126.37073,114.14035 c 0.98465,-0.72572 -0.18318,-0.97316 -1.31192,-0.98971 -1.10052,-0.0161 -2.2495,0.20338 -1.17801,0.49031 1.90056,-0.0384 -0.51836,1.39661 -1.74433,2.40285 -1.1914,0.47516 -1.61988,0.3134 -2.56551,2.09749 0.96524,0.0633 -0.4687,1.26342 -0.76758,2.07647 0.81549,1.77203 -3.24336,-0.29066 -3.42615,-0.61707 -0.19533,-0.79785 0.14318,-3.77978 1.13293,-3.29044 1.98433,0.0461 -4.70216,1.58734 -3.8497,0.5698 0.27653,-0.63172 -0.52424,0.15073 -1.60345,0.98264 -1.08154,0.83371 -2.45485,1.72756 -3.19084,1.20744 1.13909,-0.004 1.0112,-3.34117 1.16294,-3.54584 -0.67183,-1.02239 -3.49834,-2.05446 -2.71537,-1.26814 -0.11067,-0.45662 -0.51044,2.15114 -2.22314,1.1224 -0.0419,0.0502 -2.25503,-2.37351 -0.20839,-2.54349 -1.04434,0.8237 -0.82703,-0.17467 -0.33185,-1.34939 0.49812,-1.18167 1.24626,-2.50296 1.41086,-2.4704 2.04835,-1.04307 -1.56183,-0.81576 -1.85866,0.0658 -0.6846,0.0406 -2.48739,-0.76707 -0.89825,-2.71843 0.47395,0.13471 -0.64647,-5.65168 1.75459,-4.874 -1.75104,-0.48941 2.61613,0.0684 2.90847,0.0127 -0.27469,0.186 0.36994,-0.41586 0.9133,-0.83273 0.53844,-0.41308 1.01336,-0.670535 0.42724,0.17931 -0.61979,-1.309424 2.58523,-1.266121 1.7847,-1.911422 1.13451,-1.366357 -2.66856,-2.260476 -1.49375,-1.19096 -0.40186,-0.583963 0.60136,0.03447 1.8497,0.577001 1.24805,0.542407 2.77047,1.012725 3.22186,0.285061 0.69363,0.256807 -1.5006,1.240812 -1.0899,1.68597 1.98222,-0.0258 2.94619,-0.526683 3.65322,0.24243 -1.71633,-0.0552 3.95704,-0.4424 5.07564,-0.929534 1.75745,0.664944 -0.38991,1.708214 -1.0573,2.867574 1.67792,0.21673 1.86147,1.9357 -0.76804,1.99122 -0.43007,-0.38575 5.39564,-0.60649 6.45914,-0.48729 0.8301,0.45467 1.43358,0.30373 2.80121,0.40558 0,0 0,0 0,0 0.0953,-0.0636 0.21292,-0.13863 0.37222,-0.23674 0.0388,-0.5138 -0.14821,-0.0593 -0.28884,0.33676 0,0 0,0 0,0 -1.40928,0.57345 -5.23985,2.61027 -3.80052,2.60507 1.93218,0.0153 -3.68935,2.14198 -2.43084,1.6591 -1.01636,-0.17625 0.10075,0.11805 1.55533,0.6487 1.41701,0.51695 3.10572,1.23505 2.85908,1.99261 -0.19579,0.50145 1.07219,2.84093 -0.54009,2.75126 z"
       id="path14"
       inkscape:path-effect="#path-effect14"
       inkscape:original-d="m 102.57195,112.15284 c 8.73552,-2.53612 17.47104,-5.07224 26.20656,-7.60836 0.0939,-0.18786 0.18786,-0.37572 0.28179,-0.56358" />
    <path
       style="fill:#ffffff;stroke:none;stroke-width:1.05833;stroke-linecap:round"
       d="m 144.18675,118.46301 c 0.79253,5.05343 2.79003,-6.93122 1.44404,-3.82851 -0.66303,3.44888 -1.26321,-2.45032 -1.81063,-5.63996 -0.0231,-2.60092 0.30805,-3.21541 -1.08566,-6.59879 -0.45255,1.66479 -1.05114,-1.99447 -1.71474,-3.237349 -1.47811,-0.08316 1.07658,-5.479617 2.05085,-5.629363 0.78549,0.291602 3.60933,3.51973 2.6967,4.971001 -0.4184,1.803761 -0.34576,-0.679362 -0.0466,-3.414025 0.29572,-2.703647 0.81291,-5.560186 1.10394,-4.345701 0.48258,1.068444 0.072,-1.144205 -0.21523,-3.873113 -0.28914,-2.746782 -0.44827,-6.024551 0.38996,-7.080274 -0.55333,2.213361 2.57359,4.534968 2.69441,4.999509 1.32083,-0.542965 3.41419,-5.376337 2.41666,-4.46471 0.46762,0.125826 -1.70643,-2.608744 0.0812,-5.37587 -0.0233,-0.121689 3.23205,-2.98717 2.37446,1.425596 -0.22664,-2.850321 0.5784,-1.582601 1.37304,0.310806 0.8101,1.930248 1.68889,4.638963 1.58654,4.96467 0.0242,2.735993 0.39944,1.919 0.65687,0.460502 0.26686,-1.51186 0.46469,-3.880078 0.13733,-4.545733 0.29921,-1.583173 1.88107,-4.823132 2.88061,0.155673 -0.34194,0.958743 5.43417,3.319626 3.77596,8.27323 0.58805,-1.909093 0.2786,-0.258731 -0.1142,1.744564 -0.41408,2.111811 -0.92495,4.681554 -0.95004,5.093188 -0.0844,-0.790881 0.27441,1.245163 0.5247,3.03216 0.23816,1.700373 0.36477,3.168713 -0.31751,0.809008 1.51749,-0.01378 0.52792,7.586851 1.42906,6.465551 1.1499,4.5503 3.08573,-3.723474 1.66125,-2.16148 1.4327,-0.54192 -3.61039,7.0095 -2.26486,11.12051 -0.46005,1.28279 -0.93883,-5.18331 -1.52809,-4.79908 -0.52705,4.59478 -0.23481,7.50798 -1.27075,8.02563 0.52886,-3.79077 -0.57706,9.45846 -0.31392,12.72156 -1.23708,2.75727 -1.89129,-3.67749 -2.96473,-6.6827 -0.80994,3.60417 -2.64328,0.6909 -1.96341,-4.34478 0.61412,-0.42673 -1.03345,12.04663 -1.45107,13.73753 -0.89601,1.07789 -0.77758,2.68855 -1.63163,5.82766 0.66278,3.2092 -0.94426,-15.60134 -1.55153,-12.05716 -0.65569,3.6535 -1.07959,-9.75762 -0.9886,-6.76419 1.1037,-3.57196 -2.89825,7.65025 -4.36886,4.88348 -0.46853,-0.96109 -3.41936,-1.4828 -2.72547,-4.17904 z"
       id="path15"
       inkscape:path-effect="#path-effect15"
       inkscape:original-d="m 155.83045,74.111048 c -2.29707,21.402047 -1.97253,41.520702 -1.97253,62.839402"
       transform="matrix(1,0,0,1.2861244,0,-34.119004)" />
    <path
       style="fill:#ffffff;stroke:none;stroke-width:1.05833;stroke-linecap:round"
       d="m 177.62134,114.41391 c -2.14924,2.10967 -0.64236,1.89241 2.23525,0.15346 2.83172,-1.71121 4.26058,-3.36047 2.66031,-2.53152 -2.97646,2.23601 -0.52167,-0.62984 1.0942,-3.07123 0,0 0,0 0,0 0.86754,-1.34376 1.5838,-2.56438 2.0941,-3.68496 0.90194,-1.41723 1.48146,-2.39827 1.6558,-3.50223 0.076,-0.6913 0.0547,-1.71614 -0.3309,-2.601129 -0.30267,0.467302 -0.48513,0.110882 -0.69775,-0.328646 -0.24352,-0.503379 -0.48467,-0.802082 -0.95758,-0.82316 0.0333,-0.0077 -0.11191,0.02586 -0.0787,0.01819 -0.67586,0.117682 -0.37858,0.249261 -0.0831,-0.213414 0.28969,-0.453562 0.49848,-1.47244 0.81795,-1.868894 0.33787,-0.258543 1.24598,-0.605333 2.28255,-0.484939 0.9802,0.113849 1.85063,0.73251 1.54722,1.292613 -0.0489,0.931086 -0.24329,0.175901 -0.36798,-0.190652 -0.25466,-0.748655 -0.70921,-1.646189 -1.54169,-2.713809 -1.16391,-1.550373 -2.90169,-2.647784 -1.81467,-2.351128 0.60251,0.05739 0.40672,-0.15002 -0.89901,-0.578177 -1.44297,-0.47316 -2.89848,-0.766726 -5.35747,-1.311171 -3.07776,-0.595735 -6.61435,-0.983753 -7.79114,-1.732703 3.15928,0.789986 6.71458,-1.694308 7.40346,-1.666103 -0.31504,-0.815022 -2.13987,-1.986998 -3.92917,-2.786718 -1.7921,-0.800965 -3.26078,-1.12936 -2.61421,-0.618555 0.20056,-0.45361 -3.8905,1.389975 -8.50714,-0.314266 -0.0954,0.0136 -1.40025,-0.770224 -1.79016,-1.465922 -0.36466,-0.650641 0.12747,-1.376662 3.82744,-0.941214 -4.0847,0.200487 -3.23755,-0.456499 0.37561,-1.379221 3.29897,-0.842486 7.58749,-1.356944 8.3422,-1.131549 3.28524,0.356362 4.76028,0.335118 0.81294,-0.565743 -2.76295,-0.630561 -6.63791,-1.027897 -7.89093,-0.681916 -1.27297,-0.161605 -3.50275,-0.634958 -4.25996,-1.161829 -0.69187,-0.481401 -0.27243,-1.298204 4.25797,-1.734057 0.87638,0.187383 2.26181,-1.167012 4.71703,-2.185154 2.45522,-1.018142 6.09582,-1.729857 10.91018,0.238467 -0.52731,-0.207983 -3.89888,-1.634068 1.45603,0.268583 2.25481,0.742615 4.78838,1.836908 7.37977,3.371205 2.55315,1.511653 4.2233,2.894011 4.77573,3.301577 -1.22243,-0.778296 0.71319,0.219333 3.20423,2.121523 2.61069,2.092952 4.45172,4.520771 5.56879,6.559417 0.94013,1.715725 1.06991,1.629716 -1.5091,-1.614995 0.64775,-0.539176 3.40841,3.63209 4.44191,8.948685 0.41213,2.865655 0.35302,5.230363 0.25508,6.995644 -0.0871,1.569 -0.18227,2.54744 0.20304,1.70628 -0.1646,3.02903 -0.32151,4.05527 0.16733,3.78288 0.40149,-0.22371 1.10415,-1.61928 1.60686,-3.49288 0.52643,-1.96194 0.73992,-4.055786 0.69388,-5.722644 -0.0477,-1.728769 -0.28757,-2.087612 -0.54016,-0.943028 0.31272,-0.455277 0.46675,1.016487 -0.0735,3.858552 -0.54278,2.85521 -1.65804,6.11165 -3.60886,9.3412 -2.64879,4.53007 -6.00756,8.53218 -7.92835,11.70223 -1.08933,0.92212 0.60016,-1.3327 2.08035,-3.92179 1.47675,-2.58308 2.88028,-5.85226 2.34423,-5.55007 -2.31163,4.07893 -4.80321,7.12356 -6.58673,8.99317 -2.08146,2.21664 -3.61612,3.37308 -4.35699,3.35104 0.59573,-0.49413 2.21837,-1.81668 -0.27307,0.42117 -1.62258,1.45743 -4.06125,3.44958 -7.26485,5.54548 -5.43711,3.61186 -9.66334,5.38303 -12.92551,6.86813 -2.85252,0.44237 -0.99158,-0.73918 1.43829,-2.29271 2.90687,-1.85851 5.90336,-3.889 8.13898,-6.09052 -5.67907,2.80321 -2.39299,-0.55589 0.38777,-2.74258 0,0 0,0 0,0 1.27793,-0.99905 2.87068,-2.17573 4.62891,-3.46067 0.3381,-0.008 -1.56903,1.63682 -4.5981,3.50497 -2.937,1.82259 -6.25422,3.46277 -9.73079,4.74445 -3.33993,1.23131 -6.06668,1.83898 -7.03196,1.99427 -2.02375,-0.30412 -4.66012,0.71915 -9.92969,0.42572 -0.60506,0.14192 -1.06493,0.40014 1.71003,-0.09 2.21137,-0.39056 5.04575,-1.11227 8.15966,-2.34098 0.85353,-0.3368 16.17959,-8.10404 8.37173,-4.93614 -1.72519,0.69 -1.01568,0.12911 0.14566,-0.65301 1.63061,-1.09817 3.07178,-2.0246 5.19306,-3.6204 2.66676,-2.0168 4.67582,-3.83642 3.1331,-2.53013 2.70728,-1.44602 -0.65038,0.28661 -4.02912,1.2415 0,0 0,0 0,0 -3.04474,0.84987 -5.82373,1.0095 -4.57787,-0.53068 0.69336,-0.81158 0.39956,-2.52727 1.43117,-3.99484 0.39835,-0.58053 0.98823,-1.11881 1.92636,-1.60238 z"
       id="path16"
       inkscape:path-effect="#path-effect16"
       inkscape:original-d="m 162.59344,78.901495 c 64.3402,1.782776 29.53383,51.238225 -7.04478,54.667465"
       transform="matrix(1.0600676,0,0,1.033531,-12.733948,-6.5889041)" />
    <path
       style="fill:#ffffff;stroke:none;stroke-width:1.05833;stroke-linecap:round"
       d="m 226.78027,118.33678 c 0.31967,2.26417 1.06838,0.8103 1.55307,-1.02507 0.48186,-1.82464 0.63618,-3.8093 -0.0425,-2.41027 -0.67198,3.07884 -1.22972,-2.20186 -1.86996,-5.08863 -0.0477,-1.19766 0.002,-1.96771 -0.1557,-2.81617 -0.1467,-0.77443 -0.47576,-1.66287 -1.23979,-3.0306 -0.33914,1.50453 -1.19068,-1.68271 -1.95972,-2.69963 -1.23622,0.0508 0.32442,-4.79756 1.44398,-5.102685 0.80053,0.146116 4.03345,2.625602 3.22632,4.079365 -0.25875,1.73681 -0.38355,-0.657597 -0.40661,-3.048247 -0.0236,-2.443105 0.0423,-5.049826 0.51279,-4.017322 0.62084,0.849684 -0.0682,-1.014633 -0.85266,-3.375369 -0.77356,-2.328058 -1.64628,-5.118197 -1.10495,-6.194545 -0.004,2.021349 3.51663,3.350525 3.7292,3.74039 1.35472,-0.875311 1.98574,-5.501128 1.34404,-4.566722 0.48333,-0.0059 -2.26457,-1.825981 -1.39135,-4.803691 -0.0585,-0.09964 2.20999,-3.707829 2.68341,0.554161 -0.99466,-2.386114 -0.006,-1.742082 1.40154,-0.124262 1.35702,1.559361 2.89559,3.861473 2.87597,4.235157 0.65846,2.433081 0.87587,1.939006 0.75078,0.278975 -0.11691,-1.551364 -0.56533,-3.83411 -1.09438,-4.393449 -0.14615,-1.310558 0.24994,-5.472575 2.79875,-0.700661 -0.0382,1.042988 6.32977,1.888146 5.82301,7.404738 0.12706,-1.847021 0.23167,-0.602457 0.26441,1.839859 0.0301,2.241937 -0.0489,5.071109 -0.0133,5.458919 -0.35142,-1.367585 0.62011,1.806 0.9537,3.074348 0.50359,1.914731 0.68658,3.081431 -0.21324,0.880092 0.75714,-0.09946 1.10014,1.859688 1.31936,3.690759 0.21875,1.82718 0.31657,3.52359 0.72673,2.90572 0.73299,2.32754 1.43561,1.35516 1.79508,-0.0867 0.35282,-1.41519 0.33194,-3.210951 -0.31052,-2.31837 0.83777,-0.4252 -0.43109,2.47882 -1.30512,5.68567 0,0 0,0 0,0 -0.56698,2.10113 -0.968,4.37455 -0.4218,6.05062 -0.2242,0.66903 -0.47181,-0.67808 -0.75645,-2.12309 -0.28504,-1.44711 -0.61124,-2.99613 -0.89739,-2.78679 -0.32879,4.71432 -0.12404,7.71914 -1.14971,8.2266 0.24249,-1.62336 0.16493,0.16608 -0.16457,3.77245 -0.3014,3.29878 -0.83147,7.48437 -0.86376,9.15166 -0.75918,1.34844 -1.12441,0.33506 -1.42331,-1.33716 -0.31618,-1.76884 -0.54131,-3.9987 -1.02179,-5.60401 -1.18109,4.19936 -2.478,-0.14891 -1.79722,-4.37741 0.33145,-0.21561 -8.6e-4,2.75756 -0.59985,5.95306 -0.61945,3.3046 -1.45105,6.49279 -1.78502,7.36694 -1.01032,0.93769 -1.07043,2.52072 -2.38935,5.37286 0.0854,1.61303 0.47829,-2.20424 0.50917,-5.90997 0.0313,-3.7589 -0.28919,-7.39116 -0.71311,-5.74261 -0.46196,1.73701 -0.54264,-0.65372 -0.59347,-3.01997 -0.0515,-2.39717 -0.0722,-4.86657 -0.0664,-3.44826 0.61632,-1.72416 -0.19512,0.16634 -1.29487,1.96827 -1.1302,1.85184 -2.61046,3.69811 -3.26859,2.38336 -0.41389,-0.90858 -3.31613,-1.51965 -2.5449,-3.92229 z"
       id="path17"
       inkscape:path-effect="#path-effect17"
       inkscape:original-d="m 232.75941,76.083585 c 4.39626,19.064637 4.86356,42.475305 1.97254,60.303285" />
    <path
       style="fill:#ffffff;stroke:none;stroke-width:1.05833;stroke-linecap:round"
       d="m 241.46884,49.72841 c -0.92211,-0.01613 -0.7224,0.837942 -0.36515,1.48096 0.0308,0.100037 0.30648,0.394854 0.57102,0.56802 0.27227,0.178225 0.41136,0.134542 0.23197,-0.401212 -0.56179,-0.711998 -0.22791,-0.922687 0.60442,-0.761306 0.95439,0.185046 2.42853,1.1717 4.63843,3.06912 0.0602,0.06325 0.11979,0.126371 0.17878,0.18931 2.05388,1.194683 1.93567,5.42681 0.89077,10.457381 -2.98978,4.026421 -5.11768,5.896956 -6.25474,5.61508 -1.16291,0.415013 -2.46331,0.995696 -3.81158,1.74716 0.72717,0.130779 0.46935,0.371549 -0.24602,0.72456 -0.64012,0.315874 -1.34102,0.568056 -1.58388,0.755876 -0.0946,0.06068 -0.18116,0.121917 -0.25497,0.18397 -0.075,0.703143 -0.86467,0.429689 -1.56789,-0.207418 -0.71201,-0.645065 -1.2504,-1.584025 -1.18093,-2.101348 0.14863,-0.351152 0.80309,-1.20546 1.3808,-1.821653 0.5975,-0.637304 1.15563,-1.076556 1.43887,-0.611406 0.51072,0.294312 0.21025,0.37295 -0.55146,0.218211 -0.74868,-0.152092 -1.64973,-0.494206 -2.27182,-0.903076 -0.49019,-0.268078 -0.73194,-0.596737 -0.36303,-0.698807 0.42021,-0.249543 0.0826,-0.204881 -0.45603,-0.236378 -0.65026,-0.03802 -1.73046,-0.196706 -3.35335,-0.961996 -0.89284,-0.279042 -2.01072,-1.52677 -3.24662,-3.637291 -1.21484,-2.987081 -0.88896,-5.587838 0.14649,-7.683124 0.84028,-1.235572 1.48127,-1.883708 1.95236,-2.164345 -0.54727,0.559383 -1.06515,1.394394 -1.51668,2.374916 0,0 0,10e-7 0,10e-7 -0.96856,2.723157 -0.1392,5.098877 1.08505,6.736281 1.71552,1.521574 2.71446,1.297798 2.94112,1.414726 0.11477,-0.476163 -0.0714,-1.349743 -0.29761,-2.582143 -0.19664,-1.46152 0.20193,-2.547745 0.80423,-3.378104 0,0 0,-1e-6 0,-1e-6 0.68519,-0.668224 1.20239,-0.990013 0.64047,-0.954817 0.16181,0.204046 0.19071,-0.82704 0.51442,-1.315964 0.2585,-0.523397 0.78402,-0.980747 1.50337,-0.519522 0.0126,-0.02454 0.54102,0.556407 0.85071,1.171762 0.32507,0.645917 0.43412,1.198815 -0.18983,1.280703 0.36397,-0.569196 0.48605,-0.20096 0.52169,0.339808 0.0429,0.65142 0.003,1.387537 0.22624,2.071657 0.19689,0.621619 0.80092,0.508209 0.81843,0.398323 0.0136,-0.01331 0.062,-0.06089 0.0755,-0.0742 0.56541,-0.951576 0.34328,-1.454436 0.49187,-1.369739 0.14859,0.0847 0.4724,0.754317 0.13085,1.670705 -0.30559,0.564362 -0.51971,0.911852 -0.57678,0.777092 -0.0322,-0.04448 -0.0515,-0.14307 -0.11039,-0.299047 0.0744,0.03239 0.37731,0.303842 0.62394,0.752648 0.25032,0.455534 0.19069,1.254479 0.71012,1.801539 -0.0165,-0.101203 0.37939,0.599953 1.14322,1.275809 0,0 0,0 0,0 0.69319,0.728299 1.88211,1.251482 4.27333,-1.37749 1.2592,-2.093913 1.78678,-4.775424 0.58568,-8.008571 -0.89872,-1.608955 -1.7702,-2.806332 -2.5194,-3.247995 0.90936,0.558018 1.39471,1.292084 1.19733,0.988761 -0.18535,-0.284826 -0.96954,-1.31163 -1.6174,-1.428145 -0.8403,-0.337535 -1.50454,-0.527753 -1.84703,-0.499642 -0.321,0.02635 -0.28757,0.252594 -0.27453,0.274164 -0.01,0.0063 -0.0341,0.01438 0.0157,-0.04207 0.0557,-0.20779 0.11222,-0.490955 0.11535,-0.747564 0.002,-0.201056 0.008,-0.20139 -0.0754,0.422376 0.13746,-0.761935 0.11108,-0.928066 0.0242,-1.059491 0,0 0,0 0,0 0.17772,-0.163679 0.0184,-0.186276 -0.201,-0.238334 -0.22462,-0.0533 -0.39956,-0.122487 -0.24404,-0.376476 -1.23851,-0.441893 -0.8995,-1.254664 -0.0355,-1.802713 0.45935,-0.291379 0.69356,-0.396744 0.73352,-0.358229 0.0134,0.01289 -0.002,0.271721 -0.0222,0.536934 0.0324,-0.429768 0.0791,-0.316124 -0.25049,0.01737 -0.36976,0.374079 -1.2915,1.117323 -3.11228,1.971821 -1.001,-0.344909 -3.02833,1.709935 -6.15065,6.035078 0,0 1e-5,6e-6 1e-5,6e-6 -1.13848,6.380238 -0.73421,9.762472 1.07437,10.626946 1.09341,0.87246 1.67616,1.498724 1.89506,2.143026 0.24318,0.07381 0.21088,-0.190674 -0.005,-0.625198 -0.24099,-0.484427 -0.6737,-1.125855 -1.26681,-1.948244 -1.9622,-1.13597 -1.23915,-5.952933 -0.38533,-9.572551 1.2785,-1.531795 1.78517,-1.952919 1.57472,-1.555492 -0.40822,0.507651 -0.84191,1.070946 -1.29979,1.686247 -1.04369,5.536847 -0.67377,8.263829 0.78671,8.97452 2.61693,2.231329 2.18461,2.144647 2.58679,1.282196 0.0168,0.291771 -0.001,0.181806 -0.412,-0.357198 -0.358,-0.385524 -1.0895,-1.040584 -1.53046,-1.038931 -0.0271,-1.353529 1.38873,-1.47682 2.37601,-2.201236 -0.24732,-0.854846 0.82105,-2.526388 1.59584,-1.4738 0,0 0,0 0,0 0.0295,0.04103 0.0574,0.08309 0.0834,0.126102 -0.0258,0.08761 -0.085,0.10285 -0.17435,0.04955 0,0 0,0 0,0 -0.21073,-0.06879 -0.6403,-0.626724 -1.07056,-1.20523 -0.43033,-0.578597 -0.87882,-1.210065 -0.96644,-1.430835 0.0954,-0.91691 -0.30356,-0.969078 -0.70493,-2.023868 -0.48941,0.178984 0.49207,0.277419 1.4887,0.257342 1.00503,-0.02025 2.10169,-0.142223 1.81922,-0.593137 -0.52328,-0.877135 1.78345,-0.222944 2.08727,-0.127321 0.0206,8.54e-4 0.0517,0.0027 9.5e-4,-0.0018 0,0 0,0 0,0 -0.0174,-0.0063 -0.045,-0.0161 -0.0791,-0.02823 0.0119,0.04709 0.0223,0.08689 0.0314,0.120192 0.04,0.218442 0.0466,0.08279 0.0593,-0.114493 -0.0284,-0.783779 -0.37381,-3.843686 0.55304,-4.525353 0.4536,-0.308044 1.8619,-2.910397 2.3706,-1.895664 z"
       id="path18"
       inkscape:path-effect="#path-effect18"
       inkscape:original-d="m 235.29553,57.485375 c -7.10529,2.691301 13.40322,5.026207 -2.25433,-0.845373"
       inkscape:export-filename="path18.svg"
       inkscape:export-xdpi="96"
       inkscape:export-ydpi="96" />
  </g>
</svg>
